<svg width="300" height="300" viewBox="0 0 300 300" fill="none" xmlns="http://www.w3.org/2000/svg">
<circle cx="150" cy="150" r="150" fill="#1F198A"/>
<path d="M77.0853 118.752C77.0853 99.4132 84.7676 80.8665 98.4421 67.192C112.117 53.5175 130.663 45.8352 150.002 45.8352C169.341 45.8352 187.887 53.5175 201.562 67.192C215.236 80.8665 222.919 99.4132 222.919 118.752H202.085C202.09 109.041 199.381 99.5229 194.262 91.271C189.144 83.0191 181.82 76.3624 173.119 72.0525C164.417 67.7426 154.684 65.9511 145.018 66.8803C135.352 67.8095 126.139 71.4223 118.417 77.311C110.696 83.1996 104.775 91.1295 101.322 100.205C97.8696 109.281 97.0228 119.142 98.8776 128.673C100.732 138.205 105.215 147.028 111.819 154.147C118.423 161.266 126.886 166.397 136.252 168.96L150.002 155.21L176.044 181.252L150.002 207.294L132.085 189.377C116.371 185.394 102.433 176.287 92.4724 163.497C82.512 150.707 77.0978 134.963 77.0853 118.752ZM167.919 110.627L150.002 92.7102L123.96 118.752L150.002 144.794L163.752 131.044C173.118 133.607 181.581 138.738 188.185 145.857C194.789 152.976 199.271 161.799 201.126 171.331C202.981 180.862 202.134 190.723 198.682 199.798C195.229 208.874 189.308 216.804 181.586 222.693C173.865 228.581 164.652 232.194 154.986 233.123C145.32 234.053 135.587 232.261 126.885 227.951C118.184 223.641 110.86 216.985 105.742 208.733C100.623 200.481 97.9135 190.962 97.9186 181.252H77.0853C77.0748 194.906 80.8982 208.288 88.1202 219.876C95.3422 231.464 105.673 240.791 117.935 246.795C130.198 252.8 143.901 255.241 157.482 253.84C171.064 252.439 183.98 247.253 194.759 238.872C205.538 230.491 213.748 219.252 218.453 206.434C223.158 193.617 224.169 179.735 221.372 166.371C218.575 153.006 212.082 140.696 202.632 130.841C193.181 120.986 181.154 113.982 167.919 110.627Z" fill="white"/>
</svg>
