<svg width="300" height="300" viewBox="0 0 300 300" fill="none" xmlns="http://www.w3.org/2000/svg">
<circle cx="150" cy="150" r="150" fill="#FFD600"/>
<path d="M163.413 157.349C166.728 118.011 201.046 101.246 222.408 110.455C243.77 119.663 250.896 149.491 240.226 177.847C223.1 223.363 163.728 253.122 116.341 232.696C159.896 224.546 160.504 191.872 163.413 157.349Z" fill="white"/>
<path d="M134.17 142.906C134.913 182.382 102.506 202.747 80.317 195.888C58.1276 189.029 47.9782 160.133 55.6775 130.786C68.0361 83.6797 124.023 47.6964 173.245 62.9102C130.768 75.7018 133.518 108.261 134.17 142.906Z" fill="white"/>
<circle cx="150" cy="150" r="37.5" fill="#FFD600"/>
<path d="M169.162 141.456L158.935 142.571C158.646 141.538 158.14 140.567 157.417 139.658C156.714 138.749 155.764 138.016 154.565 137.458C153.367 136.9 151.9 136.621 150.165 136.621C147.83 136.621 145.867 137.127 144.276 138.14C142.706 139.152 141.931 140.464 141.952 142.076C141.931 143.46 142.438 144.586 143.471 145.454C144.524 146.321 146.26 147.034 148.677 147.592L156.797 149.327C161.301 150.298 164.648 151.838 166.838 153.945C169.048 156.052 170.164 158.811 170.185 162.22C170.164 165.215 169.286 167.86 167.55 170.153C165.836 172.426 163.449 174.203 160.392 175.484C157.334 176.764 153.822 177.405 149.855 177.405C144.029 177.405 139.339 176.186 135.785 173.748C132.231 171.289 130.114 167.87 129.432 163.49L140.372 162.436C140.867 164.585 141.921 166.207 143.533 167.302C145.144 168.397 147.241 168.944 149.824 168.944C152.489 168.944 154.627 168.397 156.239 167.302C157.871 166.207 158.687 164.854 158.687 163.242C158.687 161.879 158.16 160.753 157.107 159.864C156.074 158.976 154.462 158.294 152.272 157.819L144.152 156.114C139.587 155.164 136.209 153.563 134.019 151.311C131.829 149.038 130.744 146.166 130.764 142.695C130.744 139.762 131.539 137.22 133.151 135.072C134.783 132.902 137.045 131.229 139.938 130.051C142.851 128.853 146.208 128.254 150.01 128.254C155.588 128.254 159.978 129.442 163.181 131.818C166.404 134.194 168.398 137.406 169.162 141.456Z" fill="white"/>
</svg>
